<svg width="80" height="80" viewBox="0 0 80 80" fill="none" xmlns="http://www.w3.org/2000/svg">
<path d="M23.7163 51.4426H23.9828L24.3026 51.336L33.8973 43.8735H49.0889C49.7189 43.8735 50.3428 43.7494 50.9248 43.5083C51.5068 43.2672 52.0357 42.9139 52.4812 42.4684C52.9266 42.0229 53.28 41.4941 53.5211 40.912C53.7622 40.33 53.8863 39.7061 53.8863 39.0761V34.8118H58.2572C59.5295 34.8118 60.7497 34.3064 61.6494 33.4067C62.5491 32.5071 63.0545 31.2868 63.0545 30.0145V12.7973C63.0545 11.525 62.5491 10.3048 61.6494 9.40511C60.7497 8.50543 59.5295 8 58.2572 8H30.9656C29.6933 8 28.4731 8.50543 27.5734 9.40511C26.6737 10.3048 26.1683 11.525 26.1683 12.7973V17.115H21.7973C20.525 17.115 19.3048 17.6204 18.4051 18.5201C17.5054 19.4197 17 20.64 17 21.9123V39.1294C17 40.4018 17.5054 41.622 18.4051 42.5217C19.3048 43.4214 20.525 43.9268 21.7973 43.9268H23.4498V50.9629C23.4517 51.0585 23.477 51.1523 23.5234 51.2359C23.5699 51.3195 23.6361 51.3905 23.7163 51.4426ZM27.2343 12.7973C27.2343 11.8078 27.6275 10.8587 28.3272 10.1589C29.027 9.45919 29.976 9.06608 30.9656 9.06608H58.2572C59.2468 9.06608 60.1958 9.45919 60.8956 10.1589C61.5953 10.8587 61.9885 11.8078 61.9885 12.7973V30.0145C61.9885 31.0041 61.5953 31.9531 60.8956 32.6529C60.1958 33.3526 59.2468 33.7458 58.2572 33.7458H53.8863V21.9123C53.8863 21.2823 53.7622 20.6585 53.5211 20.0764C53.28 19.4944 52.9266 18.9655 52.4812 18.5201C52.0357 18.0746 51.5068 17.7212 50.9248 17.4801C50.3428 17.239 49.7189 17.115 49.0889 17.115H27.2343V12.7973ZM21.7973 42.8607C20.8078 42.8607 19.8587 42.4676 19.1589 41.7679C18.4592 41.0681 18.0661 40.119 18.0661 39.1294V21.9123C18.0661 20.9227 18.4592 19.9736 19.1589 19.2739C19.8587 18.5742 20.8078 18.181 21.7973 18.181H49.0889C50.0785 18.181 51.0276 18.5742 51.7273 19.2739C52.4271 19.9736 52.8202 20.9227 52.8202 21.9123V39.1294C52.8202 40.119 52.4271 41.0681 51.7273 41.7679C51.0276 42.4676 50.0785 42.8607 49.0889 42.8607H33.6841L33.3643 42.9673L24.5158 49.8968V43.3938C24.5038 43.2564 24.4438 43.1277 24.3463 43.0302C24.2489 42.9327 24.1201 42.8727 23.9828 42.8607H21.7973Z" fill="#CAC1B2" stroke="#CAC1B2" stroke-width="0.8"/>
<path d="M24.8355 26.7097H34.4835C34.5555 26.7183 34.6286 26.7104 34.6972 26.6866C34.7657 26.6629 34.828 26.6239 34.8794 26.5725C34.9307 26.5212 34.9697 26.4589 34.9934 26.3904C35.0172 26.3218 35.0251 26.2487 35.0165 26.1767C35.0165 26.0353 34.9603 25.8997 34.8604 25.7997C34.7604 25.6998 34.6248 25.6436 34.4835 25.6436H24.8355C24.6941 25.6436 24.5585 25.6998 24.4586 25.7997C24.3586 25.8997 24.3024 26.0353 24.3024 26.1767C24.2939 26.2487 24.3017 26.3218 24.3255 26.3904C24.3493 26.4589 24.3883 26.5212 24.4396 26.5725C24.4909 26.6239 24.5532 26.6629 24.6218 26.6866C24.6903 26.7104 24.7634 26.7183 24.8355 26.7097Z" fill="#CAC1B2" stroke="#CAC1B2" stroke-width="0.8"/>
<path d="M24.8355 35.0251H45.7839C45.856 35.0336 45.929 35.0257 45.9976 35.002C46.0662 34.9782 46.1285 34.9392 46.1798 34.8879C46.2311 34.8366 46.2701 34.7743 46.2939 34.7057C46.3176 34.6372 46.3255 34.5641 46.3169 34.492C46.3169 34.3507 46.2608 34.2151 46.1608 34.1151C46.0608 34.0152 45.9253 33.959 45.7839 33.959H24.8355C24.6941 33.959 24.5585 34.0152 24.4586 34.1151C24.3586 34.2151 24.3024 34.3507 24.3024 34.492C24.2939 34.5641 24.3017 34.6372 24.3255 34.7057C24.3493 34.7743 24.3883 34.8366 24.4396 34.8879C24.4909 34.9392 24.5532 34.9782 24.6218 35.002C24.6903 35.0257 24.7634 35.0336 24.8355 35.0251Z" fill="#CAC1B2" stroke="#CAC1B2" stroke-width="0.8"/>
</svg>
