<svg width="80" height="80" viewBox="0 0 80 80" fill="none" xmlns="http://www.w3.org/2000/svg">
<path d="M22 6.58741V52.4053C22 52.7297 22.263 52.9927 22.5874 52.9927H56.8754C57.1998 52.9927 57.4628 52.7297 57.4628 52.4053V6.58741C57.4628 6.26301 57.1998 6 56.8754 6H22.5874C22.263 6 22 6.26301 22 6.58741ZM23.1748 7.17482H56.288V51.8179H23.1748V7.17482Z" fill="#CAC1B2" stroke="#CAC1B2" stroke-width="0.5"/>
<path d="M50.2351 12.9769H29.2278C28.9034 12.9769 28.6404 13.2399 28.6404 13.5643C28.6404 13.8887 28.9034 14.1517 29.2278 14.1517H50.2351C50.5595 14.1517 50.8225 13.8887 50.8225 13.5643C50.8225 13.2399 50.5595 12.9769 50.2351 12.9769Z" fill="#CAC1B2" stroke="#CAC1B2" stroke-width="0.5"/>
<path d="M50.2351 17.6082H29.2278C28.9034 17.6082 28.6404 17.8712 28.6404 18.1956C28.6404 18.52 28.9034 18.783 29.2278 18.783H50.2351C50.5595 18.783 50.8225 18.52 50.8225 18.1956C50.8225 17.8712 50.5595 17.6082 50.2351 17.6082Z" fill="#CAC1B2" stroke="#CAC1B2" stroke-width="0.5"/>
<path d="M50.2351 22.2398H29.2278C28.9034 22.2398 28.6404 22.5028 28.6404 22.8272C28.6404 23.1516 28.9034 23.4146 29.2278 23.4146H50.2351C50.5595 23.4146 50.8225 23.1516 50.8225 22.8272C50.8225 22.5028 50.5595 22.2398 50.2351 22.2398Z" fill="#CAC1B2" stroke="#CAC1B2" stroke-width="0.5"/>
<path d="M50.2351 26.8711H29.2278C28.9034 26.8711 28.6404 27.1341 28.6404 27.4585C28.6404 27.7829 28.9034 28.0459 29.2278 28.0459H50.2351C50.5595 28.0459 50.8225 27.7829 50.8225 27.4585C50.8225 27.1341 50.5595 26.8711 50.2351 26.8711Z" fill="#CAC1B2" stroke="#CAC1B2" stroke-width="0.5"/>
<path d="M50.2351 31.5024H29.2278C28.9034 31.5024 28.6404 31.7654 28.6404 32.0898C28.6404 32.4142 28.9034 32.6772 29.2278 32.6772H50.2351C50.5595 32.6772 50.8225 32.4142 50.8225 32.0898C50.8225 31.7654 50.5595 31.5024 50.2351 31.5024Z" fill="#CAC1B2" stroke="#CAC1B2" stroke-width="0.5"/>
<path d="M45.2933 40.6961L41.9097 40.0462L40.2458 37.0288C40.0393 36.6542 39.4238 36.6542 39.2173 37.0288L37.5534 40.0462L34.1698 40.6961C33.9596 40.7363 33.7881 40.888 33.7218 41.0913C33.6558 41.295 33.7055 41.5184 33.8517 41.6744L36.2074 44.189L35.7797 47.6082C35.7531 47.8204 35.8443 48.0304 36.0172 48.1563C36.1908 48.2822 36.4188 48.304 36.6121 48.2128L39.7316 46.7497L42.851 48.2128C42.9305 48.2501 43.0157 48.2684 43.1006 48.2684C43.2225 48.2684 43.3438 48.2306 43.4459 48.1563C43.6188 48.0304 43.7101 47.8204 43.6834 47.6082L43.2557 44.189L45.6114 41.6744C45.7577 41.5184 45.8073 41.295 45.7413 41.0913C45.6751 40.888 45.5035 40.7363 45.2933 40.6961ZM42.21 43.587C42.0907 43.7143 42.0342 43.8881 42.056 44.0614L42.3855 46.697L39.9811 45.5692C39.9019 45.5322 39.8167 45.5135 39.7316 45.5135C39.6464 45.5135 39.5612 45.5322 39.482 45.5692L37.0776 46.697L37.4072 44.0614C37.429 43.8881 37.3725 43.7143 37.2531 43.587L35.4376 41.6489L38.0456 41.1478C38.2171 41.1149 38.3651 41.0076 38.4492 40.8547L39.7316 38.5292L41.0139 40.8547C41.098 41.0076 41.246 41.1149 41.4175 41.1478L44.0256 41.6489L42.21 43.587Z" fill="#CAC1B2" stroke="#CAC1B2" stroke-width="0.5"/>
</svg>
