<svg width="80" height="80" viewBox="0 0 80 80" fill="none" xmlns="http://www.w3.org/2000/svg">
<path d="M56.0288 16C49.7191 16 44.467 20.6898 43.3029 26.9016H35.6971C34.533 20.6898 29.2809 16 22.9719 16C15.807 16 10 22.0436 10 29.499C10 36.9557 15.807 43 22.9719 43C30.1353 43 35.9424 36.9557 35.9424 29.499C35.9424 29.4187 35.9323 29.3406 35.931 29.2611H43.0683C43.067 29.3413 43.0569 29.4187 43.0569 29.499C43.0569 36.9557 48.8647 43 56.0288 43C63.1923 43 69 36.9557 69 29.499C69 22.0429 63.1923 16 56.0288 16ZM22.9725 40.7737C16.9886 40.7737 12.1379 35.726 12.1379 29.499C12.1379 23.2726 16.9886 18.2249 22.9725 18.2249C28.9552 18.2249 33.8052 23.2726 33.8052 29.499C33.8052 35.726 28.9552 40.7737 22.9725 40.7737ZM56.0288 40.7737C50.0462 40.7737 45.1948 35.726 45.1948 29.499C45.1948 23.2726 50.0455 18.2249 56.0288 18.2249C62.0121 18.2249 66.8622 23.2726 66.8622 29.499C66.8622 35.726 62.0121 40.7737 56.0288 40.7737Z" fill="#CAC1B2"/>
</svg>
