<svg width="80" height="80" viewBox="0 0 80 80" fill="none" xmlns="http://www.w3.org/2000/svg">
<path d="M21.4157 35.6773C21.193 35.8504 21.1532 36.1717 21.3263 36.3938C24.7251 40.7588 29.6207 43.5386 35.1103 44.2214C35.7941 44.3062 36.4759 44.3481 37.1557 44.366V51.2646H32.2447C31.9623 51.2646 31.734 51.4934 31.734 51.7753C31.734 52.0572 31.9623 52.286 32.2447 52.286H43.1866C43.469 52.286 43.6973 52.0572 43.6973 51.7753C43.6973 51.4934 43.469 51.2646 43.1866 51.2646H38.1771V44.3731C42.5927 44.2735 46.8438 42.772 50.3922 40.0086C54.7572 36.6094 57.5369 31.7132 58.2192 26.2231C58.9015 20.733 57.4057 15.3057 54.0064 10.9413C53.8333 10.7181 53.5121 10.6782 53.2899 10.8519C53.0672 11.025 53.0274 11.3462 53.2005 11.5684C56.4323 15.7179 57.8546 20.8776 57.206 26.097C56.5569 31.3164 53.9145 35.9705 49.765 39.2022C45.616 42.434 40.4564 43.8563 35.237 43.2072C30.018 42.5581 25.364 39.9157 22.1322 35.7662C21.9591 35.5435 21.6384 35.5042 21.4157 35.6773Z" fill="#CAC1B2" stroke="#CAC1B2"/>
<path d="M50.7951 13.422C48.0617 9.91296 44.1259 7.67851 39.7115 7.12994C35.2961 6.58089 30.9336 7.78342 27.4235 10.5164C23.9133 13.2495 21.6791 17.1845 21.1299 21.5975C20.5812 26.0106 21.7841 30.3731 24.517 33.8816C27.2504 37.3902 31.1872 39.6246 35.6011 40.1732C36.2999 40.26 36.9972 40.3031 37.6901 40.3031C41.3759 40.3031 44.9351 39.0874 47.8891 36.7872C55.1341 31.1462 56.4375 20.6646 50.7951 13.422ZM47.2864 36.0131C43.9837 38.5849 39.8763 39.7178 35.7222 39.2001C31.5682 38.6839 27.8633 36.5808 25.2913 33.2792C19.9814 26.463 21.2084 16.5987 28.0262 11.29C30.8066 9.12517 34.1569 7.98098 37.6244 7.98098C38.2766 7.98098 38.9328 8.02167 39.5904 8.10354C43.7449 8.61975 47.4493 10.7228 50.0213 14.0245C55.3317 20.8401 54.1047 30.705 47.2864 36.0131Z" fill="#CAC1B2" stroke="#CAC1B2"/>
</svg>
