<svg width="80" height="80" viewBox="0 0 80 80" fill="none" xmlns="http://www.w3.org/2000/svg">
<path d="M39.805 12.0416L8.39751 23.9067C7.8675 24.1036 7.8675 25.0185 8.39751 25.2154L12.8251 26.8948V35.2264C12.4085 35.468 12.1272 35.9098 12.1272 36.426C12.1272 37.197 12.7522 37.8219 13.5231 37.8219C14.294 37.8219 14.919 37.197 14.919 36.426C14.919 35.9098 14.6376 35.468 14.221 35.2264V27.4182L20.4808 29.7738L19.8046 39.1523C19.7265 40.246 20.4442 41.2152 21.5058 42.0751C22.5674 42.9349 24.0629 43.7436 25.8898 44.4524C29.5434 45.8699 34.5443 46.8952 40.045 46.8952C45.5456 46.8952 50.5466 45.8699 54.2001 44.4524C56.027 43.7436 57.5226 42.9349 58.5841 42.0751C59.6457 41.2152 60.3635 40.246 60.2854 39.1523L59.6092 29.7738L71.6924 25.2154C72.2225 25.0185 72.2225 24.1036 71.6924 23.9067L40.2849 12.0416C40.0002 11.9621 39.8966 12.0165 39.805 12.0416ZM40.045 13.4375L69.4895 24.561L40.045 35.6845L10.6004 24.561L40.045 13.4375ZM21.8329 30.2973L39.805 37.0804C39.9584 37.1362 40.1316 37.1362 40.2849 37.0804L58.257 30.2973L58.8895 39.2614C58.9153 39.625 58.6032 40.2624 57.7117 40.9844C56.8202 41.7065 55.43 42.472 53.6985 43.1438C50.2355 44.4874 45.3708 45.4993 40.045 45.4993C34.7191 45.4993 29.8544 44.4874 26.3914 43.1438C24.6599 42.472 23.2697 41.7065 22.3783 40.9844C21.4868 40.2624 21.1745 39.625 21.2005 39.2614L21.8329 30.2973Z" fill="#CAC1B2" stroke="#CAC1B2" stroke-width="0.5"/>
</svg>
