<svg width="165" height="73" viewBox="0 0 165 73" fill="none" xmlns="http://www.w3.org/2000/svg">
<path d="M41.3251 67.722C41.3251 68.7647 41.0733 69.6087 40.5697 70.254C40.0696 70.8994 39.3281 71.2916 38.3452 71.4309C39.1684 71.6211 40.1287 71.7705 41.2261 71.8792L41.0125 73C39.0572 72.7657 37.5204 72.4175 36.4021 71.9556C35.2872 71.4971 34.5023 70.9299 34.0474 70.254C33.5959 69.5748 33.3701 68.7494 33.3701 67.7781C33.3701 66.929 33.5316 66.2123 33.8546 65.6281C34.1811 65.0406 34.6413 64.599 35.2351 64.3035C35.8325 64.0047 36.5358 63.8552 37.345 63.8552C38.1577 63.8552 38.861 64.0013 39.4549 64.2934C40.0522 64.5855 40.5124 65.0202 40.8354 65.5976C41.1619 66.175 41.3251 66.8831 41.3251 67.722ZM34.9017 67.6915C34.9017 68.6255 35.1118 69.3132 35.5321 69.7548C35.9558 70.1963 36.5601 70.4171 37.345 70.4171C38.123 70.4171 38.7238 70.1963 39.1475 69.7548C39.5747 69.3132 39.7883 68.6458 39.7883 67.7526C39.7883 66.8322 39.573 66.1478 39.1423 65.6995C38.7151 65.2511 38.116 65.027 37.345 65.027C36.574 65.027 35.9732 65.2477 35.5425 65.6893C35.1153 66.1274 34.9017 66.7948 34.9017 67.6915Z" fill="#454047"/>
<path d="M46.7438 71.5888C45.5421 71.5888 44.66 71.312 44.0973 70.7584C43.5382 70.2048 43.2586 69.371 43.2586 68.257V63.952H44.759V68.3843C44.759 69.0806 44.9204 69.5917 45.2434 69.9178C45.5699 70.2405 46.07 70.4018 46.7438 70.4018C47.421 70.4018 47.9212 70.2405 48.2441 69.9178C48.5706 69.5917 48.7338 69.0806 48.7338 68.3843V63.952H50.2082V68.257C50.2082 69.371 49.9286 70.2048 49.3694 70.7584C48.8103 71.312 47.935 71.5888 46.7438 71.5888Z" fill="#454047"/>
<path d="M58.2138 71.492L57.3907 69.337H53.9159L53.0876 71.492H51.6185L54.5879 63.952H56.7343L59.7037 71.492H58.2138ZM54.3431 68.2162H56.9583L55.6507 64.8079L54.3431 68.2162Z" fill="#454047"/>
<path d="M61.268 71.492V63.952H62.7684V70.3254H66.9152V71.492H61.268Z" fill="#454047"/>
<path d="M68.4129 71.492V63.952H69.9132V71.492H68.4129Z" fill="#454047"/>
<path d="M74.2211 71.492V65.1187H71.4339V63.952H78.5085V65.1187H75.7214V71.492H74.2211Z" fill="#454047"/>
<path d="M86.4831 63.952L83.4668 68.2468V71.492H81.9664V68.2621L78.8511 63.952H80.4765L82.7427 67.0903L84.9619 63.952H86.4831Z" fill="#454047"/>
<path d="M96.1896 70.3763H100.613V71.492H94.7049V63.952H100.56V65.0677H96.1896V67.075H100.019V68.1907H96.1896V70.3763Z" fill="#454047"/>
<path d="M104.855 71.5532C104.036 71.5532 103.258 71.5073 102.521 71.4156V64.1456C102.9 64.0607 103.329 63.9962 103.808 63.952C104.291 63.9045 104.753 63.8807 105.194 63.8807C108.264 63.8807 109.799 65.1611 109.799 67.722C109.799 68.6085 109.617 69.3336 109.252 69.8974C108.891 70.4612 108.346 70.879 107.616 71.1507C106.89 71.419 105.97 71.5532 104.855 71.5532ZM105.225 70.3814C106.263 70.3814 107.029 70.1674 107.522 69.7395C108.016 69.3081 108.262 68.6323 108.262 67.7118C108.262 66.8016 108.012 66.1308 107.512 65.6995C107.015 65.2647 106.258 65.0474 105.241 65.0474C104.866 65.0474 104.459 65.083 104.022 65.1543V70.3203C104.358 70.361 104.76 70.3814 105.225 70.3814Z" fill="#454047"/>
<path d="M115.221 71.5888C114.019 71.5888 113.137 71.312 112.575 70.7584C112.015 70.2048 111.736 69.371 111.736 68.257V63.952H113.236V68.3843C113.236 69.0806 113.398 69.5917 113.721 69.9178C114.047 70.2405 114.547 70.4018 115.221 70.4018C115.898 70.4018 116.398 70.2405 116.721 69.9178C117.048 69.5917 117.211 69.0806 117.211 68.3843V63.952H118.685V68.257C118.685 69.371 118.406 70.2048 117.847 70.7584C117.287 71.312 116.412 71.5888 115.221 71.5888Z" fill="#454047"/>
<path d="M124.969 71.5888C123.559 71.5888 122.481 71.2747 121.734 70.6463C120.987 70.0146 120.614 69.0449 120.614 67.7373C120.614 66.8984 120.786 66.1902 121.13 65.6129C121.474 65.0321 121.975 64.5939 122.635 64.2985C123.295 64.003 124.097 63.8552 125.042 63.8552C125.699 63.8552 126.334 63.9265 126.949 64.0692V65.2613C126.372 65.1255 125.771 65.0576 125.146 65.0576C124.15 65.0576 123.406 65.2732 122.917 65.7046C122.43 66.1359 122.187 66.8067 122.187 67.7169C122.187 68.6475 122.427 69.3251 122.906 69.7497C123.385 70.1742 124.103 70.3865 125.058 70.3865C125.7 70.3865 126.331 70.3016 126.949 70.1318V71.3239C126.338 71.5005 125.678 71.5888 124.969 71.5888Z" fill="#454047"/>
<path d="M134.558 71.492L133.735 69.337H130.26L129.432 71.492H127.963L130.932 63.952H133.079L136.048 71.492H134.558ZM130.688 68.2162H133.303L131.995 64.8079L130.688 68.2162Z" fill="#454047"/>
<path d="M138.596 71.492V65.1187H135.809V63.952H142.883V65.1187H140.096V71.492H138.596Z" fill="#454047"/>
<path d="M144.401 71.492V63.952H145.902V71.492H144.401Z" fill="#454047"/>
<path d="M151.856 71.5888C151.043 71.5888 150.338 71.4428 149.741 71.1507C149.147 70.8552 148.688 70.4188 148.365 69.8414C148.042 69.2606 147.881 68.5541 147.881 67.722C147.881 66.8899 148.042 66.1852 148.365 65.6078C148.692 65.027 149.152 64.5905 149.746 64.2985C150.343 64.003 151.046 63.8552 151.856 63.8552C152.668 63.8552 153.373 64.003 153.971 64.2985C154.568 64.5939 155.028 65.0321 155.351 65.6129C155.674 66.1902 155.836 66.8933 155.836 67.722C155.836 68.5507 155.673 69.2555 155.346 69.8363C155.02 70.4137 154.558 70.8501 153.96 71.1456C153.366 71.4411 152.665 71.5888 151.856 71.5888ZM151.856 70.4171C152.634 70.4171 153.234 70.1963 153.658 69.7548C154.085 69.3132 154.299 68.6458 154.299 67.7526C154.299 66.8322 154.084 66.1478 153.653 65.6995C153.226 65.2511 152.627 65.027 151.856 65.027C151.085 65.027 150.484 65.2477 150.053 65.6893C149.626 66.1274 149.412 66.7948 149.412 67.6915C149.412 68.6187 149.624 69.3047 150.048 69.7497C150.475 70.1946 151.078 70.4171 151.856 70.4171Z" fill="#454047"/>
<path d="M163.541 63.952H164.958V71.492H163.442L159.223 65.9644V71.492H157.806V63.952H159.322L163.541 69.4797V63.952Z" fill="#454047"/>
<path d="M33.3301 57.4539H164.918V59.2836H33.3301V57.4539Z" fill="#454047"/>
<path fill-rule="evenodd" clip-rule="evenodd" d="M61.7085 2.01318H33.3521V3.27163H39.0946V46.7815C39.0259 47.8902 38.329 49.8148 36.2608 50.7425H33.5312V52.5308H62.4088C78.9901 52.4991 80.5322 41.5057 80.6692 35.845V29.5476L69.0132 29.5476V30.3939H69.1095C71.0364 30.3993 71.6861 32.1682 71.796 33.2178L71.796 40.8154C71.408 44.728 70.0523 48.9761 65.4437 50.7425H57.5374C56.138 49.9999 55.6555 48.6519 55.606 47.8574V7.7638C55.6983 6.26488 56.9396 3.27165 61.1695 3.27165H55.606L61.7085 3.27163V2.01318ZM47.3904 10.0841C48.5784 10.0841 49.5414 9.11939 49.5414 7.92941C49.5414 6.73944 48.5784 5.77477 47.3904 5.77477C46.2025 5.77477 45.2395 6.73944 45.2395 7.92941C45.2395 9.11939 46.2025 10.0841 47.3904 10.0841Z" fill="#454047"/>
<path d="M76.1849 26.3755C74.4993 26.3755 73.2908 25.9454 72.5593 25.0852C71.8596 24.225 71.5098 23.1578 71.5098 21.8835C71.5098 20.6092 71.8914 19.5578 72.6547 18.7295C73.4498 17.9012 74.6424 17.4871 76.2326 17.4871C77.8228 17.4871 79.0313 17.8694 79.8582 18.634C80.6851 19.3667 81.0985 20.4339 81.0985 21.8357C81.0985 23.2056 80.701 24.3047 79.9059 25.133C79.1108 25.9613 77.8705 26.3755 76.1849 26.3755Z" fill="#454047"/>
<path d="M39.0946 3.27163L33.531 3.27165C37.763 3.27165 39.0034 6.26795 39.0946 7.7661L39.0946 3.27163Z" fill="#454047"/>
<path d="M78.5463 49.2413C80.3628 46.9499 81.0989 43.3367 81.0989 43.3367V52.2952H74.7251C74.7251 52.2952 76.7298 51.5326 78.5463 49.2413Z" fill="#454047"/>
<path fill-rule="evenodd" clip-rule="evenodd" d="M106.55 49.2304C104.941 51.1262 102.66 52.5071 99.4269 52.5297C98.5177 52.5646 97.7214 52.5458 97.0042 52.4902C96.5131 52.4612 96.0587 52.411 95.5972 52.3244C94.648 52.1736 93.8273 51.9651 93.0152 51.7588C92.3349 51.586 91.6606 51.4147 90.9221 51.2802C88.2236 50.7889 85.0237 51.9612 85.0237 51.9612L85.0345 43.5415L85.0346 19.0813C84.8234 18.033 84.1202 16.6307 82.405 16.6258H82.3086V15.7796L93.9079 15.7795V32.505C95.1164 29.7652 97.1836 28.3953 100.11 28.3953C106.057 28.3953 109.03 32.3616 109.03 40.2943C109.03 44.3402 108.204 47.3189 106.55 49.2304ZM99.3463 32.1705C99.6643 33.2855 99.8233 35.4837 99.8233 38.7651V41.25C99.8233 44.7544 99.6143 47.146 99.2327 48.5478C98.9272 49.67 97.8907 50.9643 96.9509 51.4359C96.1738 51.7039 95.1797 51.6199 93.9077 50.9192C93.8985 50.0523 93.9021 48.591 93.9052 47.3202C93.9066 46.7474 93.9079 46.2133 93.9079 45.7898V36.9014C93.9079 34.8944 94.2736 33.3174 95.0051 32.1705C95.7366 31.0236 96.5635 30.4502 97.4858 30.4502C98.4081 30.4502 99.0282 31.0236 99.3463 32.1705Z" fill="#454047"/>
<path d="M138.367 25.3506C136.681 25.3506 135.473 24.9205 134.741 24.0604C134.042 23.2002 133.692 22.133 133.692 20.8586C133.692 19.5843 134.073 18.533 134.837 17.7047C135.632 16.8764 136.824 16.4622 138.415 16.4622C140.005 16.4622 141.213 16.8445 142.04 17.6091C142.867 18.3419 143.28 19.4091 143.28 20.8109C143.28 22.1808 142.883 23.2799 142.088 24.1082C141.293 24.9365 140.052 25.3506 138.367 25.3506Z" fill="#454047"/>
<path d="M142.851 28.5228V47.7341C142.929 48.7665 143.556 50.6544 145.547 50.6598H145.643V51.506H131.195V50.6598H131.291C133.219 50.6546 133.869 48.8836 133.978 47.8341L133.978 32.1948C133.869 31.1454 133.219 29.3744 131.291 29.369H131.195V28.5228L142.851 28.5228Z" fill="#454047"/>
<path d="M121.186 32.4049C122.076 30.8758 123.11 30.1112 124.286 30.1112C125.749 30.1112 126.083 30.9235 125.288 32.5483H123.571C123.062 34.2368 123.142 35.5589 123.809 36.5146C124.509 37.4704 125.575 37.9482 127.006 37.9482C128.469 37.9482 129.55 37.5341 130.25 36.7058C130.949 35.8775 131.299 34.6987 131.299 33.1695C131.299 31.6085 130.822 30.4138 129.868 29.5855C128.946 28.7253 127.737 28.2953 126.242 28.2953C124.748 28.2953 123.412 28.7413 122.235 29.6333C121.058 30.4935 120.263 31.7359 119.85 33.3607V28.7504L108.206 28.7504V29.5966H108.302C110.169 29.6018 110.837 31.2624 110.977 32.3204L110.977 47.9359C110.837 48.994 110.169 50.6548 108.302 50.6599H108.206V51.5061H122.609V50.6599H122.513C120.695 50.655 120.014 49.0813 119.85 48.0217V37.8527C119.85 35.75 120.295 33.9341 121.186 32.4049Z" fill="#454047"/>
<path d="M146.665 51.8656V43.3117H147.238C148.065 46.0833 149.178 48.0267 150.577 49.1417C151.976 50.2567 153.726 50.8142 155.825 50.8142C159.069 50.8142 160.691 49.7789 160.691 47.7081C160.691 46.8161 160.293 46.147 159.498 45.701C158.258 45.0001 156.668 44.4586 154.728 44.0763C152.565 43.5028 150.752 42.7382 149.289 41.7825C147.54 40.6356 146.665 38.8197 146.665 36.3348C146.665 33.8499 147.429 31.8747 148.955 30.4092C150.482 28.9119 152.517 28.1632 155.061 28.1632C156.62 28.1632 158.226 28.5296 159.88 29.2623C160.484 29.5172 160.945 29.6446 161.263 29.6446C161.581 29.6446 161.852 29.5331 162.074 29.3101C162.297 29.0871 162.567 28.673 162.885 28.0677H163.41V35.3791H162.837C161.215 31.2375 158.703 29.1668 155.3 29.1668C153.805 29.1668 152.692 29.4376 151.961 29.9791C151.229 30.4889 150.863 31.142 150.863 31.9384C150.863 32.4163 150.975 32.7986 151.197 33.0853C151.42 33.3402 151.595 33.5313 151.722 33.6587C151.849 33.7862 152.056 33.9295 152.342 34.0888C152.628 34.2163 152.867 34.3278 153.058 34.4233L153.917 34.7101C154.33 34.8375 154.632 34.9171 154.823 34.949C156.986 35.4906 158.544 35.9684 159.498 36.3826C160.452 36.7649 161.359 37.2428 162.217 37.8162C163.966 39.0268 164.841 40.986 164.841 43.694C164.841 46.37 164.046 48.409 162.456 49.8107C160.866 51.1806 158.687 51.8656 155.92 51.8656C153.948 51.8656 152.04 51.4036 150.195 50.4797C149.814 50.2249 149.512 50.0974 149.289 50.0974C148.589 50.0974 147.906 50.6868 147.238 51.8656H146.665Z" fill="#454047"/>
<path fill-rule="evenodd" clip-rule="evenodd" d="M24.1931 27.0471C23.657 24.6386 22.5555 23.3426 21.7022 22.3385C21.3755 21.9542 21.0853 21.6126 20.8769 21.2678C20.8975 21.6188 20.7678 21.5748 20.5957 21.5164C20.3681 21.4391 20.0663 21.3367 19.9405 22.091C19.8824 22.0956 19.8118 22.2873 19.7454 22.4675C19.6536 22.7166 19.57 22.9435 19.5389 22.6238L18.3341 21.693C18.829 22.3071 18.7927 23.4763 16.1236 24.7756C14.9651 25.3396 13.8732 25.7778 12.8496 26.1885C10.9603 26.9467 9.30396 27.6114 7.89266 28.8007C5.63264 30.7051 4.98218 32.3904 4.28286 34.2023C4.16889 34.4975 4.05363 34.7962 3.92989 35.0997C3.04686 37.2655 2.30189 37.9665 1.48938 38.1984C0.676862 38.4302 0.934964 38.8721 3.82366 38.2343C5.8902 37.778 6.8733 36.6394 7.33752 36.1017C7.40338 36.0255 7.45879 35.9613 7.50538 35.9128C6.98356 36.6319 7.32554 38.6275 7.32554 38.6275C7.55378 40.6849 9.42427 42.2848 10.0668 42.2848C9.61008 40.456 10.7843 38.94 10.7843 38.94C11.417 40.6722 13.158 41.5785 13.158 41.5785C13.158 41.5785 12.7328 39.9278 12.6418 38.371C12.5446 36.709 13.0895 34.7405 14.8399 32.6304C14.9576 32.4884 15.0771 32.3447 15.1978 32.1994C16.314 30.856 17.5366 29.3847 18.5324 27.9989C18.8686 27.531 19.1474 27.1143 19.3709 26.6883C18.9932 27.6221 18.4629 28.5565 17.9172 29.5179C16.6992 31.6637 15.4051 33.9437 15.5634 36.65C15.8027 40.7394 17.7169 42.2093 20.5502 43.7669C19.6733 42.4041 19.11 40.1541 20.1968 37.7256C20.3826 37.3106 20.7945 36.8147 21.2919 36.216C22.8315 34.3629 25.1897 31.5243 24.1931 27.0471ZM23.0378 27.5752C23.0291 25.7005 21.9879 24.1225 21.6389 23.6882C22.0912 24.4812 22.1368 25.2184 22.1367 25.9042C22.1365 27.0848 21.6788 28.0379 20.7303 29.899C20.5765 30.2008 20.4375 30.4704 20.311 30.7159C19.7591 31.7867 19.4438 32.3985 19.1648 33.2202C18.5972 34.8922 19.1643 36.8779 19.1643 36.8779C18.959 35.3974 19.9745 34.2189 20.9144 33.128C21.0603 32.9587 21.2044 32.7915 21.3418 32.6256C22.3645 31.3908 23.0502 30.2477 23.0378 27.5752ZM11.656 30.7669C10.297 32.5923 10.8269 34.6338 11.0391 34.8748C11.0391 34.8748 11.0734 34.2015 11.4146 33.5211C11.7559 32.8408 12.0347 32.3193 13.12 31.4839C13.488 31.2006 13.905 30.9174 14.343 30.62C15.1946 30.0416 16.1258 29.4091 16.9316 28.6169C17.8723 27.692 19.3199 25.8931 19.3512 25.4991C19.1392 25.858 17.0546 27.3236 15.7156 27.9953C15.3823 28.1625 15.0731 28.3075 14.7826 28.4438C13.5377 29.0276 12.6362 29.4503 11.656 30.7669Z" fill="#454047"/>
<path d="M22.0481 19.9982C22.0218 18.8624 20.8308 18.8029 20.4757 18.7891C20.1207 18.7753 18.7414 18.711 17.8227 18.8297C16.9041 18.9484 16.8866 19.8534 16.941 20.2753C16.9953 20.6973 17.0327 21.1132 17.3887 21.8142C17.7446 22.5152 18.0645 22.7494 18.2818 22.9144C18.4991 23.0794 19.5714 22.784 20.4777 22.7531C21.604 22.7146 21.6476 22.5141 21.82 22.1356C22.0268 21.129 22.0551 20.2989 22.0481 19.9982Z" fill="#454047"/>
<path fill-rule="evenodd" clip-rule="evenodd" d="M43.0976 5.90376C41.5439 6.89512 38.6196 8.51265 34.7786 8.71889C33.1547 8.80608 31.5254 8.73003 30.0285 8.66016C29.402 8.63091 28.7986 8.60275 28.2286 8.5881C26.2235 8.53655 24.6007 8.64739 23.3298 9.26244C21.9866 9.91248 21.0483 10.7704 20.4125 11.8238C19.7713 12.886 19.4058 14.2007 19.2985 15.8057C19.1177 18.5117 20.0238 19.7 20.1644 19.8623L18.7837 21.0605C18.3312 20.5383 17.2615 18.8769 17.475 15.6836C17.5959 13.8743 18.0168 12.2555 18.8481 10.8782C19.6847 9.49207 20.9048 8.40444 22.5341 7.61592C24.2357 6.79242 26.2538 6.70776 28.2755 6.75974C28.9222 6.77636 29.5693 6.8067 30.2198 6.83721C31.6767 6.90551 33.1515 6.97466 34.6806 6.89256C38.0646 6.71086 40.6726 5.282 42.115 4.36161L43.0976 5.90376Z" fill="#454047"/>
<path fill-rule="evenodd" clip-rule="evenodd" d="M29.9508 14.6344C27.9593 13.8796 26.3921 13.3932 25.0577 13.6183C23.7427 13.8401 22.8241 14.5677 22.1618 15.6502C21.4814 16.7624 21.0809 18.2426 20.8832 19.8776L19.0688 19.658C19.2819 17.8958 19.7296 16.123 20.6031 14.6952C21.4948 13.2378 22.8357 12.1383 24.7539 11.8148C26.6526 11.4945 28.6817 12.1977 30.5981 12.924C30.8388 13.0152 31.0793 13.1075 31.3199 13.1999C33.0807 13.8757 34.8453 14.553 36.7032 14.8103C40.5803 15.3471 43.7605 13.723 45.2703 12.8699L46.169 14.4625C44.5847 15.3577 40.9537 17.2452 36.4527 16.622C33.8571 16.2626 32.3966 15.5741 30.6548 14.9039C30.4156 14.8119 30.1809 14.7216 29.9508 14.6344Z" fill="#454047"/>
<path d="M44.408 1.78306C44.1937 1.22749 44.4703 0.603177 45.0258 0.388619C45.5812 0.174061 46.2052 0.450505 46.4195 1.00608L48.278 5.82431C48.4922 6.37988 48.2157 7.00419 47.6602 7.21875C47.1047 7.43331 46.4807 7.15686 46.2664 6.60129L44.408 1.78306Z" fill="#454047"/>
<path d="M50.2891 1.78306C50.5034 1.22749 50.2268 0.603177 49.6714 0.388619C49.1159 0.174061 48.4919 0.450505 48.2776 1.00607L46.4192 5.82431C46.2049 6.37988 46.4815 7.00419 47.037 7.21875C47.5924 7.43331 48.2164 7.15686 48.4307 6.60129L50.2891 1.78306Z" fill="#454047"/>
</svg>
