<svg width="135" height="61" viewBox="0 0 135 61" fill="none" xmlns="http://www.w3.org/2000/svg">
<path d="M33.8114 55.7468C33.8114 56.6051 33.6054 57.2998 33.1933 57.831C32.7841 58.3622 32.1775 58.6852 31.3733 58.7998C32.0468 58.9564 32.8324 59.0794 33.7304 59.1688L33.5556 60.0915C31.9558 59.8985 30.6984 59.612 29.7834 59.2317C28.8713 58.8543 28.2291 58.3874 27.8568 57.831C27.4874 57.2719 27.3027 56.5925 27.3027 55.7929C27.3027 55.0939 27.4349 54.504 27.6991 54.0231C27.9662 53.5395 28.3428 53.176 28.8287 52.9328C29.3174 52.6867 29.8928 52.5637 30.5549 52.5637C31.2199 52.5637 31.7953 52.6839 32.2812 52.9244C32.7699 53.1648 33.1464 53.5227 33.4107 53.998C33.6778 54.4733 33.8114 55.0562 33.8114 55.7468ZM28.5559 55.7216C28.5559 56.4904 28.7278 57.0566 29.0716 57.4201C29.4183 57.7835 29.9127 57.9652 30.5549 57.9652C31.1914 57.9652 31.683 57.7835 32.0297 57.4201C32.3792 57.0566 32.554 56.5072 32.554 55.7719C32.554 55.0143 32.3778 54.4509 32.0254 54.0818C31.6759 53.7128 31.1858 53.5283 30.5549 53.5283C29.9241 53.5283 29.4325 53.71 29.0801 54.0735C28.7306 54.4341 28.5559 54.9835 28.5559 55.7216Z" fill="#CAC1B2"/>
<path d="M38.2448 58.9298C37.2616 58.9298 36.5399 58.7019 36.0795 58.2462C35.6221 57.7905 35.3933 57.1041 35.3933 56.1871V52.6434H36.6209V56.2919C36.6209 56.8651 36.753 57.2859 37.0173 57.5543C37.2844 57.8199 37.6936 57.9527 38.2448 57.9527C38.7989 57.9527 39.2081 57.8199 39.4724 57.5543C39.7395 57.2859 39.8731 56.8651 39.8731 56.2919V52.6434H41.0793V56.1871C41.0793 57.1041 40.8506 57.7905 40.3931 58.2462C39.9356 58.7019 39.2195 58.9298 38.2448 58.9298Z" fill="#CAC1B2"/>
<path d="M47.6294 58.8501L46.9559 57.0762H44.1129L43.4352 58.8501H42.2332L44.6628 52.6434H46.4189L48.8484 58.8501H47.6294ZM44.4624 56.1535H46.6021L45.5323 53.3479L44.4624 56.1535Z" fill="#CAC1B2"/>
<path d="M50.1283 58.8501V52.6434H51.3559V57.8898H54.7487V58.8501H50.1283Z" fill="#CAC1B2"/>
<path d="M55.9741 58.8501V52.6434H57.2016V58.8501H55.9741Z" fill="#CAC1B2"/>
<path d="M60.7262 58.8501V53.6038H58.4459V52.6434H64.2342V53.6038H61.9538V58.8501H60.7262Z" fill="#CAC1B2"/>
<path d="M70.7588 52.6434L68.2909 56.1787V58.8501H67.0634V56.1913L64.5145 52.6434H65.8443L67.6985 55.2267L69.5142 52.6434H70.7588Z" fill="#CAC1B2"/>
<path d="M78.7005 57.9317H82.3193V58.8501H77.4857V52.6434H82.2766V53.5618H78.7005V55.2142H81.8333V56.1326H78.7005V57.9317Z" fill="#CAC1B2"/>
<path d="M85.7905 58.9004C85.1199 58.9004 84.4834 58.8627 83.8809 58.7872V52.8028C84.1907 52.7329 84.5416 52.6797 84.9337 52.6434C85.3287 52.6043 85.7067 52.5847 86.0675 52.5847C88.5795 52.5847 89.8355 53.6387 89.8355 55.7468C89.8355 56.4765 89.6863 57.0734 89.3879 57.5375C89.0924 58.0016 88.6463 58.3455 88.0495 58.5691C87.4557 58.79 86.7026 58.9004 85.7905 58.9004ZM86.0931 57.9359C86.9427 57.9359 87.5693 57.7597 87.9728 57.4075C88.3763 57.0524 88.5781 56.496 88.5781 55.7384C88.5781 54.9891 88.3735 54.4369 87.9643 54.0818C87.5579 53.724 86.9385 53.5451 86.1059 53.5451C85.799 53.5451 85.4665 53.5744 85.1085 53.6331V57.8856C85.3841 57.9191 85.7123 57.9359 86.0931 57.9359Z" fill="#CAC1B2"/>
<path d="M94.2717 58.9298C93.2885 58.9298 92.5667 58.7019 92.1064 58.2462C91.6489 57.7905 91.4201 57.1041 91.4201 56.1871V52.6434H92.6477V56.2919C92.6477 56.8651 92.7798 57.2859 93.0441 57.5543C93.3112 57.8199 93.7204 57.9527 94.2717 57.9527C94.8258 57.9527 95.235 57.8199 95.4992 57.5543C95.7663 57.2859 95.8999 56.8651 95.8999 56.2919V52.6434H97.1061V56.1871C97.1061 57.1041 96.8774 57.7905 96.4199 58.2462C95.9624 58.7019 95.2463 58.9298 94.2717 58.9298Z" fill="#CAC1B2"/>
<path d="M102.247 58.9298C101.094 58.9298 100.211 58.6712 99.6005 58.154C98.9895 57.6339 98.6841 56.8357 98.6841 55.7593C98.6841 55.0688 98.8247 54.4858 99.1061 54.0106C99.3874 53.5325 99.798 53.1718 100.338 52.9286C100.878 52.6853 101.534 52.5637 102.307 52.5637C102.844 52.5637 103.364 52.6224 103.867 52.7399V53.7212C103.395 53.6094 102.904 53.5534 102.392 53.5534C101.577 53.5534 100.969 53.731 100.568 54.086C100.17 54.4411 99.9713 54.9933 99.9713 55.7426C99.9713 56.5086 100.167 57.0664 100.56 57.4159C100.952 57.7653 101.538 57.9401 102.32 57.9401C102.846 57.9401 103.361 57.8702 103.867 57.7304V58.7117C103.367 58.8571 102.827 58.9298 102.247 58.9298Z" fill="#CAC1B2"/>
<path d="M110.093 58.8501L109.42 57.0762H106.577L105.899 58.8501H104.697L107.126 52.6434H108.883L111.312 58.8501H110.093ZM106.926 56.1535H109.066L107.996 53.3479L106.926 56.1535Z" fill="#CAC1B2"/>
<path d="M113.396 58.8501V53.6038H111.116V52.6434H116.904V53.6038H114.624V58.8501H113.396Z" fill="#CAC1B2"/>
<path d="M118.146 58.8501V52.6434H119.374V58.8501H118.146Z" fill="#CAC1B2"/>
<path d="M124.245 58.9298C123.581 58.9298 123.004 58.8096 122.515 58.5691C122.029 58.3259 121.654 57.9666 121.39 57.4913C121.125 57.0133 120.993 56.4317 120.993 55.7468C120.993 55.0618 121.125 54.4817 121.39 54.0064C121.657 53.5283 122.033 53.169 122.519 52.9286C123.008 52.6853 123.583 52.5637 124.245 52.5637C124.91 52.5637 125.487 52.6853 125.976 52.9286C126.465 53.1718 126.841 53.5325 127.105 54.0106C127.37 54.4858 127.502 55.0646 127.502 55.7468C127.502 56.4289 127.368 57.0091 127.101 57.4872C126.834 57.9624 126.456 58.3217 125.967 58.5649C125.482 58.8082 124.908 58.9298 124.245 58.9298ZM124.245 57.9652C124.882 57.9652 125.374 57.7835 125.72 57.4201C126.07 57.0566 126.244 56.5072 126.244 55.7719C126.244 55.0143 126.068 54.4509 125.716 54.0818C125.366 53.7128 124.876 53.5283 124.245 53.5283C123.615 53.5283 123.123 53.71 122.771 54.0735C122.421 54.4341 122.246 54.9835 122.246 55.7216C122.246 56.4849 122.42 57.0496 122.766 57.4159C123.116 57.7821 123.609 57.9652 124.245 57.9652Z" fill="#CAC1B2"/>
<path d="M133.807 52.6434H134.966V58.8501H133.726L130.273 54.2999V58.8501H129.114V52.6434H130.354L133.807 57.1936V52.6434Z" fill="#CAC1B2"/>
<path d="M27.2699 47.2944H134.933V48.7999H27.2699V47.2944Z" fill="#CAC1B2"/>
<path fill-rule="evenodd" clip-rule="evenodd" d="M50.4886 1.65649H27.2878V2.69241H31.9863V38.5084C31.9301 39.421 31.36 41.0054 29.6677 41.769H27.4345V42.2053V43.2412L51.0547 43.2412C64.6277 43.2181 65.8898 34.1663 66.0019 29.5058V24.322H58.742V24.322H56.4652V25.0186H56.5441C58.1204 25.0231 58.652 26.4791 58.742 27.3431L58.742 33.5974C58.4245 36.8181 57.3153 40.315 53.5446 41.769H47.0759C45.9309 41.1578 45.5361 40.0481 45.4956 39.3941V6.39025C45.5712 5.15639 46.5868 2.69242 50.0475 2.69242L45.4956 2.69241H50.4886V1.65649ZM62.3329 21.7108C60.9538 21.7108 59.965 21.3568 59.3665 20.6487C58.794 19.9407 58.5078 19.0621 58.5078 18.0131C58.5078 16.9642 58.82 16.0988 59.4445 15.4169C60.0951 14.7351 61.0709 14.3942 62.3719 14.3942C63.673 14.3942 64.6618 14.7089 65.3383 15.3382C66.0149 15.9414 66.3532 16.8199 66.3532 17.9738C66.3532 19.1015 66.0279 20.0062 65.3774 20.6881C64.7268 21.3699 63.712 21.7108 62.3329 21.7108ZM31.9863 2.69242H27.4342C30.8968 2.69242 31.9116 5.15889 31.9863 6.39213V2.69242ZM64.2649 40.5333C65.7512 38.6471 66.3535 35.6728 66.3535 35.6728V43.0472H61.1385C61.1385 43.0472 62.7787 42.4194 64.2649 40.5333ZM38.7738 8.3002C39.7457 8.3002 40.5336 7.50611 40.5336 6.52656C40.5336 5.54701 39.7457 4.75292 38.7738 4.75292C37.8018 4.75292 37.0139 5.54701 37.0139 6.52656C37.0139 7.50611 37.8018 8.3002 38.7738 8.3002Z" fill="#CAC1B2"/>
<path fill-rule="evenodd" clip-rule="evenodd" d="M81.2834 26.4819C81.5436 27.3997 81.6738 29.2092 81.6738 31.9104V33.9559C81.6738 36.8406 81.5028 38.8093 81.1905 39.9632C80.9405 40.887 80.0924 41.9525 79.3235 42.3406C78.6877 42.5612 77.8744 42.492 76.8337 41.9153C76.8262 41.2017 76.8291 39.999 76.8316 38.9529V38.9526C76.8328 38.4811 76.8338 38.0415 76.8338 37.6928V30.3762C76.8338 28.7241 77.1331 27.426 77.7315 26.4819C78.33 25.5378 79.0066 25.0657 79.7612 25.0657C80.5158 25.0657 81.0232 25.5378 81.2834 26.4819ZM87.1772 40.5251C85.8611 42.0855 83.9948 43.2223 81.3499 43.241C80.6055 43.2697 79.9536 43.2542 79.3664 43.2084C78.9651 43.1845 78.5936 43.1433 78.2165 43.072C77.4397 42.9479 76.768 42.7763 76.1035 42.6064L76.1035 42.6064C75.5468 42.4641 74.9952 42.3231 74.3909 42.2124C72.1831 41.808 69.565 42.773 69.565 42.773L69.5738 35.8421H69.5739V15.7072C69.4011 14.8443 68.8257 13.69 67.4223 13.686H67.3435V12.9894H69.5739V12.9893H76.8338V26.7572C77.8226 24.5019 79.514 23.3743 81.9079 23.3743C86.7739 23.3743 89.2069 26.6392 89.2069 33.1691C89.2069 36.4996 88.5303 38.9516 87.1772 40.5251ZM113.209 20.868C111.83 20.868 110.841 20.5139 110.243 19.8059C109.67 19.0978 109.384 18.2193 109.384 17.1703C109.384 16.1213 109.696 15.2559 110.321 14.5741C110.972 13.8922 111.947 13.5513 113.248 13.5513C114.549 13.5513 115.538 13.866 116.215 14.4954C116.891 15.0986 117.23 15.9771 117.23 17.131C117.23 18.2586 116.904 19.1634 116.254 19.8452C115.603 20.527 114.588 20.868 113.209 20.868ZM109.618 23.4792H116.878V39.2932C116.942 40.1431 117.455 41.6973 119.084 41.7017H119.163V42.3983L116.878 42.3983L113.401 42.3983H113.103L109.618 42.3983L107.341 42.3983V41.7017H107.42C108.998 41.6974 109.529 40.2396 109.618 39.3758L109.618 26.5019C109.529 25.638 108.998 24.1803 107.42 24.1758H107.341V23.4792L109.618 23.4792ZM99.152 26.6749C99.8806 25.4161 100.726 24.7867 101.689 24.7867C102.886 24.7867 103.159 25.4554 102.509 26.7929H101.104C100.687 28.1828 100.752 29.2711 101.299 30.0578C101.871 30.8446 102.743 31.2379 103.914 31.2379C105.111 31.2379 105.996 30.897 106.568 30.2152C107.14 29.5333 107.427 28.563 107.427 27.3043C107.427 26.0193 107.036 25.0358 106.256 24.354C105.501 23.6459 104.512 23.2919 103.289 23.2919C102.066 23.2919 100.973 23.659 100.011 24.3933C99.0479 25.1014 98.3974 26.1242 98.0591 27.4616V23.6665H94.294V23.6665H88.5321V24.3631H88.611C90.1384 24.3675 90.6849 25.7344 90.7992 26.6053L90.7992 39.4594C90.685 40.3303 90.1385 41.6972 88.6113 41.7018H88.5321V42.3984H94.294H94.5543H100.316V41.7018H100.237C98.7504 41.6973 98.1931 40.4021 98.0591 39.53V31.1593C98.0591 29.4285 98.4234 27.9337 99.152 26.6749ZM119.999 42.6943V35.653H120.467C121.144 37.9345 122.055 39.5342 123.2 40.4521C124.345 41.3699 125.776 41.8289 127.493 41.8289C130.147 41.8289 131.474 40.9766 131.474 39.272C131.474 38.5377 131.149 37.987 130.499 37.6198C129.484 37.0429 128.183 36.5971 126.595 36.2824C124.826 35.8103 123.343 35.1809 122.146 34.3942C120.715 33.4501 119.999 31.9553 119.999 29.9098C119.999 27.8643 120.624 26.2384 121.873 25.0321C123.122 23.7995 124.787 23.1832 126.869 23.1832C128.144 23.1832 129.458 23.4848 130.811 24.088C131.305 24.2978 131.682 24.4027 131.943 24.4027C132.203 24.4027 132.424 24.3109 132.606 24.1273C132.788 23.9437 133.01 23.6028 133.27 23.1045H133.699V29.1231H133.231C131.904 25.7139 129.848 24.0093 127.064 24.0093C125.841 24.0093 124.93 24.2322 124.332 24.678C123.733 25.0976 123.434 25.6352 123.434 26.2908C123.434 26.6842 123.525 26.9989 123.707 27.2349C123.889 27.4447 124.032 27.6021 124.136 27.707C124.24 27.8119 124.41 27.9299 124.644 28.061C124.878 28.1659 125.073 28.2577 125.229 28.3363L125.932 28.5724C126.27 28.6773 126.517 28.7428 126.673 28.7691C128.443 29.2149 129.718 29.6082 130.499 29.9492C131.279 30.2639 132.021 30.6572 132.723 31.1293C134.154 32.1258 134.87 33.7386 134.87 35.9677C134.87 38.1705 134.22 39.8489 132.918 41.0028C131.617 42.1304 129.835 42.6943 127.571 42.6943C125.958 42.6943 124.397 42.314 122.887 41.5535C122.575 41.3437 122.328 41.2388 122.146 41.2388C121.573 41.2388 121.014 41.724 120.467 42.6943H119.999Z" fill="#CAC1B2"/>
<path fill-rule="evenodd" clip-rule="evenodd" d="M19.8049 22.2626C19.3673 20.2811 18.4654 19.2154 17.7666 18.3897C17.4991 18.0737 17.2614 17.7929 17.0909 17.5093C17.1075 17.7981 17.0012 17.762 16.8602 17.7141C16.6739 17.6507 16.4269 17.5668 16.323 18.1856C16.2766 18.2013 16.2212 18.3521 16.169 18.4941C16.0936 18.699 16.025 18.8858 15.9998 18.6228L15.014 17.8582C15.4187 18.3629 15.3881 19.3246 13.2014 20.3953C12.2524 20.8601 11.3579 21.2214 10.5194 21.56L10.5194 21.56C8.97171 22.1851 7.61491 22.733 6.45834 23.7123C4.60623 25.2805 4.07231 26.6671 3.49827 28.1579C3.40472 28.4008 3.31011 28.6465 3.20855 28.8962C2.48381 30.6783 1.87325 31.2555 1.20773 31.4468C0.542212 31.6381 0.753226 32.0014 3.11917 31.4745C4.81174 31.0976 5.61763 30.1603 5.99818 29.7177C6.05217 29.655 6.0976 29.6021 6.13578 29.5623C5.70793 30.1541 5.98645 31.7952 5.98645 31.7952C6.17178 33.4871 7.70224 34.8016 8.22841 34.801C7.85579 33.2973 8.81847 32.0495 8.81847 32.0495C9.33525 33.4737 10.7602 34.2178 10.7602 34.2178C10.7602 34.2178 10.4133 32.8604 10.3399 31.58C10.2616 30.2131 10.7093 28.5936 12.1443 26.8568L12.4377 26.502C13.3528 25.3962 14.355 24.1851 15.1715 23.0446C15.4371 22.6735 15.659 22.3416 15.8388 22.0044C15.5295 22.762 15.1001 23.5205 14.6586 24.3006C13.6586 26.0673 12.5961 27.9445 12.7239 30.1714C12.917 33.5365 14.485 34.7446 16.8064 36.0242C16.0885 34.9034 15.6285 33.0523 16.5212 31.0531C16.6737 30.7114 17.0118 30.303 17.42 29.8099C18.6833 28.2838 20.6185 25.9462 19.8049 22.2626ZM18.8561 22.6978C18.8507 21.1551 17.998 19.8575 17.7121 19.5005C18.0824 20.1526 18.1191 20.7592 18.1184 21.3236C18.1172 22.2951 17.7409 23.0798 16.9611 24.6122C16.8347 24.8606 16.7205 25.0825 16.6166 25.2845L16.6162 25.2852L16.6162 25.2852C16.1625 26.1669 15.9035 26.6702 15.6739 27.3467C15.2067 28.7231 15.6701 30.3567 15.6701 30.3567C15.503 29.1385 16.3371 28.1677 17.1092 27.2692C17.229 27.1297 17.3474 26.992 17.4603 26.8553C18.3003 25.8383 18.8639 24.897 18.8561 22.6978ZM9.53628 25.3287C8.42302 26.8312 8.85498 28.5098 9.02842 28.7079C9.02842 28.7079 9.05702 28.154 9.33671 27.5942C9.6164 27.0344 9.84493 26.6052 10.7335 25.9173C11.0349 25.684 11.3762 25.4508 11.7348 25.2058L11.7348 25.2058C12.4321 24.7294 13.1945 24.2085 13.8544 23.5562C14.6247 22.7948 15.8105 21.3142 15.8364 20.9901C15.6627 21.2854 13.956 22.4925 12.8599 23.046C12.5871 23.1837 12.334 23.3032 12.0962 23.4155L12.0962 23.4156C11.0772 23.8967 10.3392 24.2451 9.53628 25.3287Z" fill="#CAC1B2"/>
<path d="M18.04 16.4615C18.0187 15.5269 17.044 15.4782 16.7535 15.467C16.4629 15.4557 15.3341 15.4032 14.5823 15.5011C13.8304 15.5991 13.8159 16.3437 13.8602 16.6909C13.9046 17.0381 13.9351 17.3803 14.2262 17.957C14.5174 18.5338 14.7791 18.7264 14.9569 18.8621C15.1346 18.9978 16.0123 18.7544 16.754 18.7287C17.6758 18.6968 17.7115 18.5317 17.8527 18.2203C18.0223 17.3919 18.0456 16.7089 18.04 16.4615Z" fill="#CAC1B2"/>
<path fill-rule="evenodd" clip-rule="evenodd" d="M35.2617 4.8598C33.9906 5.67587 31.598 7.00737 28.4553 7.17714C27.1266 7.24891 25.7936 7.18631 24.5689 7.12879C24.0563 7.10472 23.5626 7.08154 23.0962 7.06947C21.4557 7.02704 20.1279 7.11828 19.0881 7.62458C17.9892 8.15967 17.2214 8.86589 16.7012 9.73301C16.1767 10.6074 15.8776 11.6896 15.7898 13.0108C15.6418 15.2383 16.3832 16.2165 16.4983 16.35L15.3686 17.3364C14.9984 16.9066 14.1232 15.5389 14.2978 12.9103C14.3968 11.4209 14.7411 10.0884 15.4213 8.9546C16.1058 7.8136 17.104 6.91829 18.4371 6.26921C19.8293 5.59133 21.4805 5.52164 23.1346 5.56442C23.6638 5.57811 24.1931 5.60308 24.7254 5.62819C25.9174 5.68442 27.124 5.74134 28.3752 5.67375C31.1439 5.52419 33.2777 4.34799 34.4578 3.59036L35.2617 4.8598Z" fill="#CAC1B2"/>
<path fill-rule="evenodd" clip-rule="evenodd" d="M24.5054 12.0466C22.876 11.4253 21.5937 11.0249 20.5019 11.2102C19.426 11.3927 18.6744 11.9917 18.1326 12.8828C17.5759 13.7983 17.2481 15.0167 17.0864 16.3627L15.6019 16.1818C15.7762 14.7313 16.1426 13.272 16.8573 12.0967C17.5868 10.8969 18.6839 9.99192 20.2533 9.72556C21.8068 9.46191 23.467 10.0408 25.035 10.6386C25.2319 10.7137 25.4286 10.7897 25.6255 10.8657C27.0662 11.4221 28.5099 11.9796 30.03 12.1914C33.2022 12.6333 35.8042 11.2964 37.0395 10.5941L37.7747 11.9051C36.4785 12.642 33.5077 14.1958 29.8251 13.6827C27.7014 13.3869 26.5065 12.8202 25.0813 12.2685C24.8857 12.1927 24.6936 12.1184 24.5054 12.0466Z" fill="#CAC1B2"/>
<rect width="1.7657" height="6.02136" rx="0.882849" transform="matrix(0.932088 -0.362231 0.357961 0.933737 36.0161 0.639587)" fill="#CAC1B2"/>
<rect width="1.76569" height="6.02136" rx="0.882847" transform="matrix(-0.932088 -0.362232 -0.35796 0.933737 41.4631 0.639587)" fill="#CAC1B2"/>
</svg>
