<svg width="24" height="46" viewBox="0 0 24 46" fill="none" xmlns="http://www.w3.org/2000/svg">
<path d="M10 18.0159C10 17.9054 10.0895 17.8159 10.2 17.8159H13.8263C13.9368 17.8159 14.0263 17.9054 14.0263 18.0159V43.2886C14.0263 43.3324 14.012 43.3749 13.9854 43.4098L12.1723 45.7911C12.0922 45.8962 11.9341 45.8962 11.854 45.7911L10.0409 43.4098C10.0144 43.3749 10 43.3324 10 43.2886V18.0159Z" fill="#2F2B31"/>
<rect x="10" y="22.1579" width="4.02632" height="4.02632" fill="#101010"/>
<circle cx="12" cy="12" r="12" fill="#822735"/>
<path d="M12.7221 3.09862C12.7082 3.46019 9.15466 3.54751 6.28551 6.084C3.33005 8.51598 2.83281 11.8834 2.46986 11.8386C2.07229 11.9534 1.88746 7.74401 5.3436 4.8278C8.77166 1.87648 12.8982 2.72506 12.7221 3.09862Z" fill="#FBF8F3"/>
</svg>
