<svg width="25" height="25" viewBox="0 0 25 25" fill="none" xmlns="http://www.w3.org/2000/svg">
<path fill-rule="evenodd" clip-rule="evenodd" d="M15.5352 15.1328C16.2292 14.5195 16.9927 14.1106 17.6174 14.5876C18.8668 15.5417 22.4066 17.6542 20.3938 19.0171C19.4914 19.7667 18.3115 20.5845 18.3115 20.5845C18.3115 20.5845 17.895 21.0615 17.1316 20.9933C11.44 20.857 3.94393 11.3166 5.12387 5.86498C5.26269 5.18352 5.81796 4.91094 5.81796 4.91094C5.81796 4.91094 6.85909 3.9569 7.8308 3.27544C9.70484 1.98067 10.9542 5.59239 11.5095 7.02345C11.8565 7.63677 11.3706 8.31822 10.5377 8.79525C8.5943 10.0219 13.8693 16.632 15.5352 15.1328Z" fill="#807974"/>
</svg>
